# xmcd
#
# Track frame offsets: 
#        150
#        27367
#        42811
#        74017
#        89781
#        119638
#        140041
#        174499
#        190263
#        207777
#        227453
#        249349
#        267044
#        283375
#        298616
#        326353
#
# Disc length: 4770 seconds
#
# Revision: 2
# Processed by: cddbd v1.5.2PL0 Copyright (c) Steve Scherf et al.
# Submitted via: ExactAudioCopy v1.3
#
DISCID=f812a010
DTITLE=Various Artist - Akella Present - vol.44 -  Rockin' Blues  CD2
DYEAR=2014
DGENRE=Rockin' Blues
TTITLE0=Mark May Band - Devils Playpen
TTITLE1=Smokin' Joe Kubek and Bnois King - Mirror, Mirror
TTITLE2=JP Stingray - The Day You Brought Me The Blues
TTITLE3=Keith Scott - Down With Troubles
TTITLE4=Nobby Reed Project - Cure For The Blues
TTITLE5=George Thorogood and The Destroyers - I Drink Alone
TTITLE6=Turning Blue - Pack Up Your Bags
TTITLE7=Scotty Bratcher - Back Home To You
TTITLE8=Snowy White and The White Flames - A Piece Of Your Love
TTITLE9=Paul Black - Bad Man
TTITLE10=Toler Townsend Band - Loneliness
TTITLE11=Jon Zeeman - Money
TTITLE12=Walter Parks and Swamp Cabbage - Old Blues
TTITLE13=Sean Costello - Hard Luck Woman
TTITLE14=Eight Ball Down - Closer to the Edge
TTITLE15=Big Will and The Bluesmen - Hard Times
EXTD=
EXTT0=
EXTT1=
EXTT2=
EXTT3=
EXTT4=
EXTT5=
EXTT6=
EXTT7=
EXTT8=
EXTT9=
EXTT10=
EXTT11=
EXTT12=
EXTT13=
EXTT14=
EXTT15=
PLAYORDER=
